<?xml version="1.0" encoding="UTF-8"?>
<svg width="439" height="55" viewBox="0 0 439 55" xmlns="http://www.w3.org/2000/svg">
    <path id="XMLID191" fill="#ffffff" stroke="none" d="M 247.799988 17.200001 C 253.200012 17.200001 257.5 21.599998 257.5 26.900002 C 257.5 32.200001 253.100006 36.599998 247.799988 36.599998 C 242.5 36.599998 238.100006 32.200001 238.100006 26.900002 C 238.100006 21.599998 242.399994 17.200001 247.799988 17.200001 M 247.799988 11.700001 C 239.399994 11.700001 232.600006 18.5 232.600006 26.900002 C 232.600006 35.299999 239.399994 42.099998 247.799988 42.099998 C 256.200012 42.099998 263 35.299999 263 26.900002 C 263 18.5 256.200012 11.700001 247.799988 11.700001 L 247.799988 11.700001 Z"/>
    <path id="XMLID190" fill="#ffffff" stroke="none" d="M 271.799988 -0.799999 L 266.899994 -0.799999 C 266.700012 -0.799999 266.600006 -0.700001 266.600006 -0.5 L 266.600006 41.299999 C 266.600006 41.5 266.700012 41.599998 266.899994 41.599998 L 271.799988 41.599998 C 272 41.599998 272.100006 41.5 272.100006 41.299999 L 272.100006 -0.5 C 272 -0.700001 271.899994 -0.799999 271.799988 -0.799999 Z"/>
    <path id="XMLID188" fill="#ffffff" stroke="none" d="M 408.299988 12.200001 L 403.5 12.200001 C 403.400024 12.200001 403.299988 12.299999 403.200012 12.400002 L 395.400024 35.299999 C 395.200012 35.799999 394.599976 35.799999 394.400024 35.299999 L 386.599976 12.400002 C 386.599976 12.299999 386.5 12.200001 386.299988 12.200001 L 381.5 12.200001 C 381.299988 12.200001 381.200012 12.400002 381.200012 12.599998 L 391.099976 41.400002 C 391.099976 41.5 391.200012 41.599998 391.400024 41.599998 L 398.200012 41.599998 C 398.299988 41.599998 398.400024 41.5 398.5 41.400002 L 408.400024 12.599998 C 408.599976 12.400002 408.5 12.200001 408.299988 12.200001 Z"/>
    <path id="XMLID185" fill="#ffffff" stroke="none" d="M 137.899994 36.599998 C 135 36.599998 132.5 35.400002 130.700012 33.400002 C 130.600006 33.200001 130.600006 33 130.799988 32.900002 L 147.600006 25.799999 L 152.5 23.700001 C 152.700012 23.599998 152.700012 23.5 152.700012 23.400002 C 151.100006 16.5 144.799988 11.400002 137.399994 11.700001 C 129.600006 12 123.100006 18.299999 122.799988 26.099998 C 122.399994 34.799999 129.299988 42 138 42 C 144.299988 42 149.700012 38.099998 152 32.599998 C 152.100006 32.400002 152 32.200001 151.799988 32.200001 L 146.899994 31.299999 C 146.799988 31.299999 146.600006 31.299999 146.600006 31.5 C 144.799988 34.5 141.600006 36.599998 137.899994 36.599998 Z M 137.899994 17.200001 C 140.799988 17.200001 143.399994 18.5 145.100006 20.5 C 145.200012 20.700001 145.200012 20.900002 145 21 C 145 21 128.799988 27.900002 128.600006 28 C 128.399994 28.099998 128.200012 27.900002 128.200012 27.799999 C 128.200012 27.5 128.200012 27.299999 128.200012 27 C 128.200012 21.5 132.600006 17.200001 137.899994 17.200001 Z"/>
    <path id="XMLID182" fill="#ffffff" stroke="none" d="M 71.800003 17.200001 C 77.200012 17.200001 81.5 21.599998 81.5 26.900002 C 81.5 32.200001 77.100006 36.599998 71.800003 36.599998 C 66.5 36.599998 62.100006 32.200001 62.100006 26.900002 C 62.100006 21.599998 66.5 17.200001 71.800003 17.200001 M 71.800003 11.700001 C 63.399994 11.700001 56.600006 18.5 56.600006 26.900002 C 56.600006 35.299999 63.399994 42.099998 71.800003 42.099998 C 80.200012 42.099998 87 35.299999 87 26.900002 C 87 18.5 80.200012 11.700001 71.800003 11.700001 L 71.800003 11.700001 Z"/>
    <path id="XMLID121" fill="#ffffff" stroke="none" d="M 104.700012 11.400002 C 100.899994 11.5 97.899994 13 95.799988 15.5 C 95.600006 15.700001 95.299988 15.599998 95.299988 15.299999 L 95.299988 12.5 C 95.299988 12.299999 95.200012 12.200001 95 12.200001 L 90.100006 12.200001 C 89.899994 12.200001 89.799988 12.299999 89.799988 12.5 L 89.799988 54.400002 C 89.799988 54.599998 89.899994 54.699997 90.100006 54.699997 L 94.899994 54.699997 C 95.100006 54.699997 95.200012 54.599998 95.200012 54.400002 L 95.200012 37.900002 C 95.200012 37.599998 95.5 37.5 95.700012 37.700001 C 97.799988 40.200001 100.899994 41.799999 104.899994 41.799999 C 114.200012 41.799999 121.600006 33.400002 119.799988 23.799999 C 118.600006 16.5 112 11.299999 104.700012 11.400002 Z M 106.600006 36.200001 C 100 37.299999 94.299988 31.599998 95.399994 25 C 96.100006 21 99.299988 17.700001 103.299988 17.099998 C 109.899994 16 115.600006 21.700001 114.5 28.299999 C 113.899994 32.299999 110.600006 35.5 106.600006 36.200001 Z"/>
    <path id="XMLID178" fill="#ffffff" stroke="none" d="M 170.200012 11.700001 C 167 11.700001 163.299988 13.700001 161.600006 16.099998 C 161.5 16.299999 161.100006 16.200001 161.100006 16 L 161.100006 12.5 C 161.100006 12.400002 161 12.200001 160.799988 12.200001 L 155.899994 12.200001 C 155.799988 12.200001 155.600006 12.299999 155.600006 12.5 L 155.600006 27 L 155.600006 41.400002 C 155.600006 41.5 155.700012 41.700001 155.899994 41.700001 L 160.799988 41.700001 C 160.899994 41.700001 161.100006 41.599998 161.100006 41.400002 L 161.100006 27 C 161.100006 21.5 164.799988 17.599998 170.100006 17.599998 C 177.100006 17.599998 179.200012 22.200001 179.200012 27.599998 L 179.200012 41.400002 C 179.200012 41.5 179.299988 41.700001 179.5 41.700001 L 184.399994 41.700001 C 184.5 41.700001 184.700012 41.599998 184.700012 41.400002 L 184.700012 27.599998 C 184.799988 19.200001 180.799988 11.700001 170.200012 11.700001 Z"/>
    <path id="XMLID176" fill="#ffffff" stroke="none" d="M 282.5 -0.799999 L 277.600006 -0.799999 C 277.399994 -0.799999 277.299988 -0.700001 277.299988 -0.5 L 277.299988 41.299999 C 277.299988 41.5 277.399994 41.599998 277.600006 41.599998 L 282.5 41.599998 C 282.700012 41.599998 282.799988 41.5 282.799988 41.299999 L 282.799988 -0.5 C 282.799988 -0.700001 282.600006 -0.799999 282.5 -0.799999 Z"/>
    <path id="XMLID173" fill="#ffffff" stroke="none" d="M 301.799988 36.599998 C 298.899994 36.599998 296.399994 35.400002 294.600006 33.400002 C 294.5 33.200001 294.5 33 294.700012 32.900002 L 311.5 25.799999 L 316.399994 23.700001 C 316.600006 23.599998 316.600006 23.5 316.600006 23.400002 C 315 16.5 308.700012 11.400002 301.299988 11.700001 C 293.5 12 287 18.299999 286.700012 26.099998 C 286.299988 34.799999 293.200012 42 301.899994 42 C 308.200012 42 313.600006 38.099998 315.899994 32.599998 C 316 32.400002 315.899994 32.200001 315.700012 32.200001 L 310.799988 31.299999 C 310.700012 31.299999 310.5 31.299999 310.5 31.5 C 308.700012 34.5 305.399994 36.599998 301.799988 36.599998 Z M 301.799988 17.200001 C 304.700012 17.200001 307.299988 18.5 309 20.5 C 309.100006 20.700001 309.100006 20.900002 308.899994 21 C 308.899994 21 292.700012 27.900002 292.5 28 C 292.299988 28.099998 292.100006 27.900002 292.100006 27.799999 C 292.100006 27.5 292.100006 27.299999 292.100006 27 C 292 21.5 296.399994 17.200001 301.799988 17.200001 Z"/>
    <path id="XMLID172" fill="#ffffff" stroke="none" d="M 334.5 36.599998 C 328.5 36.599998 323.799988 31.200001 324.899994 25 C 325.5 21.599998 328.899994 18.099998 332.299988 17.400002 C 336 16.599998 339.5 17.900002 341.700012 20.400002 C 341.799988 20.5 342 20.5 342.099976 20.400002 C 342.900024 19.599998 345.400024 17.099998 345.599976 16.900002 C 345.700012 16.799999 345.700012 16.599998 345.599976 16.5 C 342.700012 13.299999 338.400024 11.400002 333.700012 11.599998 C 326 12 319.600006 18.299999 319.200012 26 C 318.799988 34.700001 325.700012 41.900002 334.400024 41.900002 C 338.799988 41.900002 342.799988 40 345.599976 37 C 345.700012 36.900002 345.700012 36.799999 345.599976 36.700001 C 345 36.099998 342.799988 33.900002 342.099976 33.200001 C 342 33.099998 341.799988 33.099998 341.700012 33.200001 C 340 35.400002 337.400024 36.599998 334.5 36.599998 Z"/>
    <path id="XMLID171" fill="#ffffff" stroke="none" d="M 366.599976 12.200001 L 361.099976 12.200001 C 361 12.200001 360.900024 12.099998 360.900024 12 L 360.900024 -0.5 C 360.900024 -0.700001 360.799988 -0.799999 360.599976 -0.799999 L 355.700012 -0.799999 C 355.5 -0.799999 355.400024 -0.700001 355.400024 -0.5 L 355.400024 12 C 355.400024 12.099998 355.299988 12.200001 355.200012 12.200001 L 349.799988 12.200001 C 349.599976 12.200001 349.5 12.299999 349.5 12.5 L 349.5 17.400002 C 349.5 17.599998 349.599976 17.700001 349.799988 17.700001 L 355.200012 17.700001 C 355.299988 17.700001 355.400024 17.799999 355.400024 17.900002 L 355.400024 41.299999 C 355.400024 41.5 355.5 41.599998 355.700012 41.599998 L 360.599976 41.599998 C 360.799988 41.599998 360.900024 41.5 360.900024 41.299999 L 360.900024 17.900002 C 360.900024 17.799999 361 17.700001 361.099976 17.700001 L 366.599976 17.700001 C 366.799988 17.700001 366.900024 17.599998 366.900024 17.400002 L 366.900024 12.5 C 366.900024 12.400002 366.700012 12.200001 366.599976 12.200001 Z"/>
    <path id="XMLID168" fill="#ffffff" stroke="none" d="M 424.099976 36.599998 C 421.200012 36.599998 418.700012 35.400002 416.900024 33.400002 C 416.799988 33.200001 416.799988 33 417 32.900002 L 433.799988 25.799999 L 438.700012 23.700001 C 438.900024 23.599998 438.900024 23.5 438.900024 23.400002 C 437.299988 16.5 431 11.400002 423.599976 11.700001 C 415.799988 12 409.299988 18.299999 409 26.099998 C 408.599976 34.799999 415.5 42 424.200012 42 C 430.5 42 435.900024 38.099998 438.200012 32.599998 C 438.299988 32.400002 438.200012 32.200001 438 32.200001 L 433.099976 31.299999 C 433 31.299999 432.799988 31.299999 432.799988 31.5 C 431 34.5 427.799988 36.599998 424.099976 36.599998 Z M 424.099976 17.200001 C 427 17.200001 429.599976 18.5 431.299988 20.5 C 431.400024 20.700001 431.400024 20.900002 431.200012 21 C 431.200012 21 415 27.900002 414.799988 28 C 414.599976 28.099998 414.400024 27.900002 414.400024 27.799999 C 414.400024 27.5 414.400024 27.299999 414.400024 27 C 414.299988 21.5 418.700012 17.200001 424.099976 17.200001 Z"/>
    <path id="XMLID167" fill="#ffffff" stroke="none" d="M 376.700012 2.799999 L 371.799988 2.799999 C 371.599976 2.799999 371.5 2.900002 371.5 3.099998 L 371.5 8 C 371.5 8.200001 371.599976 8.299999 371.799988 8.299999 L 376.700012 8.299999 C 376.900024 8.299999 377 8.200001 377 8 L 377 3.099998 C 377 2.900002 376.900024 2.799999 376.700012 2.799999 Z"/>
    <path id="XMLID161" fill="#ffffff" stroke="none" d="M 376.700012 12.200001 L 371.799988 12.200001 C 371.599976 12.200001 371.5 12.299999 371.5 12.5 L 371.5 41.299999 C 371.5 41.5 371.599976 41.599998 371.799988 41.599998 L 376.700012 41.599998 C 376.900024 41.599998 377 41.5 377 41.299999 L 377 12.5 C 377 12.400002 376.900024 12.200001 376.700012 12.200001 Z"/>
    <path id="XMLID125" fill="#ffffff" stroke="none" d="M 219.899994 36.599998 C 213.899994 36.599998 209.200012 31.200001 210.299988 25 C 210.899994 21.599998 214.299988 18.099998 217.700012 17.400002 C 221.399994 16.599998 224.899994 17.900002 227.100006 20.400002 C 227.200012 20.5 227.399994 20.5 227.5 20.400002 C 228.299988 19.599998 230.799988 17.099998 231 16.900002 C 231.100006 16.799999 231.100006 16.599998 231 16.5 C 228.100006 13.299999 223.799988 11.400002 219.100006 11.599998 C 211.399994 12 205 18.299999 204.600006 26 C 204.200012 34.700001 211.100006 41.900002 219.799988 41.900002 C 224.200012 41.900002 228.200012 40 231 37 C 231.100006 36.900002 231.100006 36.799999 231 36.700001 C 230.399994 36.099998 228.200012 33.900002 227.5 33.200001 C 227.399994 33.099998 227.200012 33.099998 227.100006 33.200001 C 225.399994 35.400002 222.799988 36.599998 219.899994 36.599998 Z"/>
    <path id="Path" fill="#ffffff" stroke="none" d="M 30.100006 26.799999 C 30.100006 29.099998 29.399994 31.299999 28.199997 33.200001 L 33 38 C 35.300003 34.900002 36.699997 31.099998 36.699997 26.900002 C 36.699997 22.700001 35.300003 18.900002 32.899994 15.799999 L 28.199997 20.5 C 29.399994 22.299999 30.100006 24.5 30.100006 26.799999 Z"/>
    <path id="path1" fill="#ffffff" stroke="none" d="M 18.300003 38.599998 C 11.800003 38.599998 6.5 33.299999 6.5 26.799999 C 6.5 20.299999 11.800003 15 18.300003 15 C 20.699997 15 22.899994 15.700001 24.699997 16.900002 L 29.399994 12.200001 C 26.300003 9.900002 22.5 8.5 18.300003 8.5 C 8.199997 8.5 0 16.700001 0 26.799999 C 0 36.900002 8.199997 45.099998 18.300003 45.099998 C 22.5 45.099998 26.300003 43.700001 29.399994 41.299999 L 24.600006 36.5 C 22.899994 37.900002 20.699997 38.599998 18.300003 38.599998 Z"/>
</svg>
